# xmcd
#
# Track frame offsets:
#  150
#  14062
#  32005
#  45730
#  63040
#  81105
#  93992
#  103250
#  121912
#  136517
#  163487
#  180627
#  192075
#  207570
#  219902
#
# Disc length: 3244 seconds
#
# Revision: 2
# Processed by: cddbd v1.5.1PL2 Copyright (c) Steve Scherf et al.
# Submitted via: Collectorz.com_Music_Collector 6.11
#
DISCID=cd0caa0f
DTITLE=Ash Grunwald - Introducing Ash Grunwald
DYEAR=2002
DGENRE=Blues
TTITLE0=Just Can't Help Myself
TTITLE1=Just Be Yourself
TTITLE2=Open Road
TTITLE3=Smokestack Lightning
TTITLE4=The Sky is Crying
TTITLE5=If You Don't Mind
TTITLE6=Grinin' in Your Face
TTITLE7=So Long
TTITLE8=Tobacco Road
TTITLE9=Ocean Liner
TTITLE10=Is There A Reason?
TTITLE11=Baby Please
TTITLE12=Rolling and Tumbling
TTITLE13=Baby Please Don't Leave Me
TTITLE14=Dolphin Song
EXTD=
EXTT0=
EXTT1=
EXTT2=
EXTT3=
EXTT4=
EXTT5=
EXTT6=
EXTT7=
EXTT8=
EXTT9=
EXTT10=
EXTT11=
EXTT12=
EXTT13=
EXTT14=
PLAYORDER=
